<?xml version="1.0" encoding="UTF-8" standalone="no"?>
<svg
   xmlns:dc="http://purl.org/dc/elements/1.1/"
   xmlns:cc="http://creativecommons.org/ns#"
   xmlns:rdf="http://www.w3.org/1999/02/22-rdf-syntax-ns#"
   xmlns:svg="http://www.w3.org/2000/svg"
   xmlns="http://www.w3.org/2000/svg"
   xmlns:sodipodi="http://sodipodi.sourceforge.net/DTD/sodipodi-0.dtd"
   xmlns:inkscape="http://www.inkscape.org/namespaces/inkscape"
   id="Layer_1"
   data-name="Layer 1"
   viewBox="0 0 734.82001 848.51001"
   version="1.1"
   sodipodi:docname="sftraj.svg"
   inkscape:version="0.92.1 r15371"
   width="734.82001"
   height="848.51001">
  <metadata
     id="metadata151">
    <rdf:RDF>
      <cc:Work
         rdf:about="">
        <dc:format>image/svg+xml</dc:format>
        <dc:type
           rdf:resource="http://purl.org/dc/dcmitype/StillImage" />
        <dc:title>ggplot2</dc:title>
      </cc:Work>
    </rdf:RDF>
  </metadata>
  <sodipodi:namedview
     pagecolor="#ffffff"
     bordercolor="#666666"
     borderopacity="1"
     objecttolerance="10"
     gridtolerance="10"
     guidetolerance="10"
     inkscape:pageopacity="0"
     inkscape:pageshadow="2"
     inkscape:window-width="640"
     inkscape:window-height="480"
     id="namedview149"
     showgrid="false"
     inkscape:zoom="0.68304329"
     inkscape:cx="539.83987"
     inkscape:cy="478.67635"
     inkscape:current-layer="Layer_1"
     fit-margin-top="0"
     fit-margin-left="0"
     fit-margin-right="0"
     fit-margin-bottom="0" />
  <defs
     id="defs4">
    <marker
       inkscape:stockid="Arrow2Sstart"
       orient="auto"
       refY="0"
       refX="0"
       id="marker7006"
       style="overflow:visible"
       inkscape:isstock="true">
      <path
         id="path7004"
         style="fill:#000000;fill-opacity:1;fill-rule:evenodd;stroke:#000000;stroke-width:0.625;stroke-linejoin:round;stroke-opacity:1"
         d="M 8.7185878,4.0337352 -2.2072895,0.01601326 8.7185884,-4.0017078 c -1.7454984,2.3720609 -1.7354408,5.6174519 -6e-7,8.035443 z"
         transform="matrix(0.3,0,0,0.3,-0.69,0)"
         inkscape:connector-curvature="0" />
    </marker>
    <marker
       inkscape:stockid="Arrow2Sstart"
       orient="auto"
       refY="0"
       refX="0"
       id="marker6970"
       style="overflow:visible"
       inkscape:isstock="true">
      <path
         id="path6968"
         style="fill:#000000;fill-opacity:1;fill-rule:evenodd;stroke:#000000;stroke-width:0.625;stroke-linejoin:round;stroke-opacity:1"
         d="M 8.7185878,4.0337352 -2.2072895,0.01601326 8.7185884,-4.0017078 c -1.7454984,2.3720609 -1.7354408,5.6174519 -6e-7,8.035443 z"
         transform="matrix(0.3,0,0,0.3,-0.69,0)"
         inkscape:connector-curvature="0" />
    </marker>
    <marker
       inkscape:isstock="true"
       style="overflow:visible"
       id="marker6585"
       refX="0"
       refY="0"
       orient="auto"
       inkscape:stockid="Arrow2Sstart"
       inkscape:collect="always">
      <path
         transform="matrix(0.3,0,0,0.3,-0.69,0)"
         d="M 8.7185878,4.0337352 -2.2072895,0.01601326 8.7185884,-4.0017078 c -1.7454984,2.3720609 -1.7354408,5.6174519 -6e-7,8.035443 z"
         style="fill:#0365c0;fill-opacity:1;fill-rule:evenodd;stroke:#0365c0;stroke-width:0.625;stroke-linejoin:round;stroke-opacity:1"
         id="path6583"
         inkscape:connector-curvature="0" />
    </marker>
    <marker
       inkscape:stockid="Arrow2Mstart"
       orient="auto"
       refY="0"
       refX="0"
       id="Arrow2Mstart"
       style="overflow:visible"
       inkscape:isstock="true">
      <path
         id="path4691"
         style="fill:#000000;fill-opacity:1;fill-rule:evenodd;stroke:#000000;stroke-width:0.625;stroke-linejoin:round;stroke-opacity:1"
         d="M 8.7185878,4.0337352 -2.2072895,0.01601326 8.7185884,-4.0017078 c -1.7454984,2.3720609 -1.7354408,5.6174519 -6e-7,8.035443 z"
         transform="scale(0.6)"
         inkscape:connector-curvature="0" />
    </marker>
    <marker
       inkscape:stockid="Arrow1Lstart"
       orient="auto"
       refY="0"
       refX="0"
       id="Arrow1Lstart"
       style="overflow:visible"
       inkscape:isstock="true">
      <path
         id="path4667"
         d="M 0,0 5,-5 -12.5,0 5,5 Z"
         style="fill:#000000;fill-opacity:1;fill-rule:evenodd;stroke:#000000;stroke-width:1.00000003pt;stroke-opacity:1"
         transform="matrix(0.8,0,0,0.8,10,0)"
         inkscape:connector-curvature="0" />
    </marker>
    <style
       id="style2">.cls-1{fill:#f2f2f2;}.cls-2{fill:#fff;}.cls-3{fill:#e6b35a;}.cls-4{fill:#424242;}.cls-5{fill:#51a7f9;}.cls-6{fill:#a8d6ff;}.cls-7{fill:#0365c0;}.cls-8{fill:#164f86;}.cls-9{fill:#002452;}.cls-10{fill:#000643;}</style>
  </defs>
  <title
     id="title6">ggplot2</title>
  <path
     style="fill:none;fill-rule:evenodd;stroke:#0365c0;stroke-width:25;stroke-linecap:round;stroke-linejoin:round;stroke-miterlimit:4;stroke-dasharray:none;stroke-dashoffset:250;stroke-opacity:1;marker-start:url(#marker6585)"
     d="M 216.2455,660.96214 426.6085,540.28061 98.42859,350.80586 506.5289,115.18905"
     id="path6581"
     inkscape:connector-curvature="0" />
  <path
     class="cls-4"
     d="M 705.52,195.21 427.72,34.82 367.41,0 307.1,34.82 29.28,195.22 0,212.13 v 424.25 l 29.28,16.91 281.28,162.39 56.85,32.83 56.85,-32.83 281.26,-162.38 29.3,-16.92 V 212.13 Z M 682.13,634 l -3.5,2 -64.37,37.16 -6.06,3.5 -81.62,47.12 -3.5,2 -154,88.92 -1.67,1 -1.83,-1 -154.39,-89.21 -3.5,-2 -81.08,-46.83 -6.07,-3.5 -65.94,-38.08 -3.5,-2 -21.82,-12.61 V 230 l 21.82,-12.6 3.5,-2 16.71,-9.65 6,-3.49 130.38,-75.26 3.5,-2 154.38,-89.12 1.83,-1.06 v 0 l 1.67,1 154,88.92 3.5,2 107.4,62 66.57,38.43 5,2.88 v 390.42 z"
     id="path102"
     inkscape:connector-curvature="0"
     style="fill:#949494;fill-opacity:1" />
  <text
     xml:space="preserve"
     style="font-style:normal;font-variant:normal;font-weight:normal;font-stretch:normal;font-size:21.33333397px;line-height:12px;font-family:'Liberation Sans';-inkscape-font-specification:'Liberation Sans, Normal';font-variant-ligatures:normal;font-variant-caps:normal;font-variant-numeric:normal;font-feature-settings:normal;text-align:start;letter-spacing:0px;word-spacing:0px;writing-mode:lr-tb;text-anchor:start;fill:#0365c0;fill-opacity:1;stroke:none;stroke-width:1px;stroke-linecap:butt;stroke-linejoin:miter;stroke-opacity:1"
     x="290.12631"
     y="412.20349"
     id="text7076"><tspan
       sodipodi:role="line"
       id="tspan7074"
       x="290.12631"
       y="412.20349"
       style="font-style:normal;font-variant:normal;font-weight:bold;font-stretch:normal;font-size:173.33332825px;font-family:Comfortaa;-inkscape-font-specification:Comfortaa;fill:#0365c0;fill-opacity:1">ftraj</tspan></text>
</svg>
